<svg width="558" height="542" viewBox="0 0 558 542" fill="none" xmlns="http://www.w3.org/2000/svg">
<path fill-rule="evenodd" clip-rule="evenodd" d="M202.45 349.4C210.55 353.8 220.4 356 232 356C246 356 257.55 353.6 266.65 348.8C273.904 344.936 280.754 339.208 287.2 331.614V318.2L292.3 325.1C290.629 327.405 288.929 329.577 287.2 331.614V351.5H322.9V252.5C322.9 245.1 322.6 238.4 322 232.4C321.4 226.4 319.5 220.4 316.3 214.4C310.6 203.6 302.2 196 291.1 191.6C280 187.2 267.3 185 253 185C245.373 185 238.373 185.643 232 186.928L233.5 223.5C242.399 222.2 247 222.2 253 222.2C263.8 222.2 271.5 224.45 276.1 228.95C279.712 232.484 281.906 237.59 282.682 244.269C287.51 243.538 292.516 242.782 297.7 242L283 250.1C283 248.039 282.894 246.095 282.682 244.269C275.774 245.315 269.23 246.308 263.05 247.25C252.55 248.75 243.15 250.35 234.85 252.05C226.55 253.75 219.4 255.7 213.4 257.9C204.7 261.1 197.75 265.1 192.55 269.9C187.45 274.6 183.75 280.05 181.45 286.25C179.15 292.45 178 299.3 178 306.8C178 315.8 180.05 324.05 184.15 331.55C188.35 338.95 194.45 344.9 202.45 349.4ZM259.6 320C254.5 322.6 248.2 323.9 240.7 323.9C236 323.9 231.95 323.2 228.55 321.8C225.15 320.4 222.5 318.4 220.6 315.8C218.8 313.1 217.9 309.9 217.9 306.2C217.9 303.5 218.45 301.05 219.55 298.85C220.75 296.65 222.55 294.65 224.95 292.85C227.45 290.95 230.7 289.2 234.7 287.6C238.2 286.3 242.25 285.1 246.85 284C251.45 282.9 257.5 281.7 265 280.4C269.82 279.5 275.589 278.477 282.308 277.329C282.369 275.5 282.4 273.824 282.4 272.3L294.4 275.3C290.076 276.015 286.045 276.691 282.308 277.329C282.213 280.182 282.044 283.405 281.8 287C281.5 292.8 280.3 297.9 278.2 302.3C277.1 304.6 275 307.45 271.9 310.85C268.9 314.25 264.8 317.3 259.6 320Z" fill="#012B2A"/>
<path d="M283 250.1L297.7 242C292.516 242.782 287.51 243.538 282.682 244.269C282.894 246.095 283 248.039 283 250.1Z" fill="#012B2A"/>
<path d="M292.3 325.1L287.2 318.2V331.614C288.929 329.577 290.629 327.405 292.3 325.1Z" fill="#012B2A"/>
<path fill-rule="evenodd" clip-rule="evenodd" d="M282.4 272.3C282.4 273.824 282.369 275.5 282.308 277.329C286.045 276.691 290.076 276.015 294.4 275.3L282.4 272.3Z" fill="#012B2A"/>
<path d="M193.262 188.805L194.779 217.765L223.221 187.235L193.262 188.805Z" fill="#CCAA01"/>
<circle cx="360" cy="336" r="20" fill="#CCAA01"/>
</svg>
