<svg width="1200" height="542" viewBox="0 0 1200 542" fill="none" xmlns="http://www.w3.org/2000/svg">
<path fill-rule="evenodd" clip-rule="evenodd" d="M205.45 379.4C213.55 383.8 223.4 386 235 386C249 386 260.55 383.6 269.65 378.8C276.904 374.936 283.754 369.208 290.2 361.614V348.2L295.3 355.1C293.629 357.405 291.929 359.577 290.2 361.614V381.5H325.9V282.5C325.9 275.1 325.6 268.4 325 262.4C324.4 256.4 322.5 250.4 319.3 244.4C313.6 233.6 305.2 226 294.1 221.6C283 217.2 270.3 215 256 215C248.373 215 241.373 215.643 235 216.928L236.5 253.5C245.399 252.2 250 252.2 256 252.2C266.8 252.2 274.5 254.45 279.1 258.95C282.712 262.484 284.906 267.59 285.682 274.269C290.51 273.538 295.516 272.782 300.7 272L286 280.1C286 278.039 285.894 276.095 285.682 274.269C278.774 275.315 272.23 276.308 266.05 277.25C255.55 278.75 246.15 280.35 237.85 282.05C229.55 283.75 222.4 285.7 216.4 287.9C207.7 291.1 200.75 295.1 195.55 299.9C190.45 304.6 186.75 310.05 184.45 316.25C182.15 322.45 181 329.3 181 336.8C181 345.8 183.05 354.05 187.15 361.55C191.35 368.95 197.45 374.9 205.45 379.4ZM262.6 350C257.5 352.6 251.2 353.9 243.7 353.9C239 353.9 234.95 353.2 231.55 351.8C228.15 350.4 225.5 348.4 223.6 345.8C221.8 343.1 220.9 339.9 220.9 336.2C220.9 333.5 221.45 331.05 222.55 328.85C223.75 326.65 225.55 324.65 227.95 322.85C230.45 320.95 233.7 319.2 237.7 317.6C241.2 316.3 245.25 315.1 249.85 314C254.45 312.9 260.5 311.7 268 310.4C272.82 309.5 278.589 308.477 285.308 307.329C285.369 305.5 285.4 303.824 285.4 302.3L297.4 305.3C293.076 306.015 289.045 306.691 285.308 307.329C285.213 310.182 285.044 313.405 284.8 317C284.5 322.8 283.3 327.9 281.2 332.3C280.1 334.6 278 337.45 274.9 340.85C271.9 344.25 267.8 347.3 262.6 350Z" fill="white"/>
<path d="M286 280.1L300.7 272C295.516 272.782 290.51 273.538 285.682 274.269C285.894 276.095 286 278.039 286 280.1Z" fill="white"/>
<path d="M295.3 355.1L290.2 348.2V361.614C291.929 359.577 293.629 357.405 295.3 355.1Z" fill="white"/>
<path fill-rule="evenodd" clip-rule="evenodd" d="M285.4 302.3C285.4 303.824 285.369 305.5 285.308 307.329C289.045 306.691 293.076 306.015 297.4 305.3L285.4 302.3Z" fill="white"/>
<path d="M357.5 386V224.6C357.5 220.5 357.6 215.85 357.8 210.65C358 205.45 358.8 200.2 360.2 194.9C361.7 189.6 364.4 184.8 368.3 180.5C373.3 174.9 378.7 171.1 384.5 169.1C390.4 167 396.1 165.9 401.6 165.8C407.1 165.6 411.8 165.5 415.7 165.5H435.8V198.5H417.2C410.8 198.5 406.05 200.15 402.95 203.45C399.85 206.65 398.3 210.5 398.3 215V386H357.5ZM332 255.5V224H435.8V255.5H332ZM441.723 386V224H477.723V263.6L473.823 258.5C475.923 252.9 478.723 247.8 482.223 243.2C485.723 238.6 490.023 234.8 495.123 231.8C499.023 229.4 503.273 227.55 507.873 226.25C512.473 224.85 517.223 224 522.123 223.7C527.023 223.3 531.923 223.4 536.823 224V262.1C532.323 260.7 527.073 260.25 521.073 260.75C515.173 261.15 509.823 262.5 505.023 264.8C500.223 267 496.173 269.95 492.873 273.65C489.573 277.25 487.073 281.55 485.373 286.55C483.673 291.45 482.823 297 482.823 303.2V386H441.723ZM550.355 201.5V165.5H591.155V201.5H550.355ZM550.355 386V224H591.155V386H550.355ZM661.925 386L603.125 224H643.925L682.325 336.2L720.725 224H761.525L702.725 386H661.925ZM773.633 201.5V165.5H814.433V201.5H773.633ZM773.633 386V224H814.433V386H773.633ZM904.702 390.5C884.302 390.5 867.802 385.9 855.202 376.7C842.702 367.4 835.102 354.3 832.402 337.4L874.102 331.1C875.802 338.7 879.552 344.65 885.352 348.95C891.252 353.25 898.702 355.4 907.702 355.4C915.102 355.4 920.802 354 924.802 351.2C928.802 348.3 930.802 344.3 930.802 339.2C930.802 336 930.002 333.45 928.402 331.55C926.802 329.55 923.202 327.6 917.602 325.7C912.102 323.8 903.502 321.3 891.802 318.2C878.602 314.8 868.052 311 860.152 306.8C852.252 302.6 846.552 297.6 843.052 291.8C839.552 285.9 837.802 278.8 837.802 270.5C837.802 260.1 840.452 251.1 845.752 243.5C851.052 235.8 858.502 229.9 868.102 225.8C877.802 221.6 889.202 219.5 902.302 219.5C915.002 219.5 926.252 221.45 936.052 225.35C945.852 229.25 953.752 234.8 959.752 242C965.852 249.2 969.602 257.7 971.002 267.5L929.302 275C928.602 269 926.002 264.25 921.502 260.75C917.002 257.25 910.902 255.2 903.202 254.6C895.702 254.1 889.652 255.1 885.052 257.6C880.552 260.1 878.302 263.7 878.302 268.4C878.302 271.2 879.252 273.55 881.152 275.45C883.152 277.35 887.202 279.3 893.302 281.3C899.502 283.3 908.902 285.9 921.502 289.1C933.802 292.3 943.652 296.05 951.052 300.35C958.552 304.55 964.002 309.65 967.402 315.65C970.802 321.55 972.502 328.7 972.502 337.1C972.502 353.7 966.502 366.75 954.502 376.25C942.502 385.75 925.902 390.5 904.702 390.5Z" fill="white"/>
<path d="M196.262 218.805L197.779 247.765L226.221 217.235L196.262 218.805Z" fill="white"/>
<circle cx="998" cy="366" r="20" fill="white"/>
</svg>
