<svg width="1200" height="542" viewBox="0 0 1200 542" fill="none" xmlns="http://www.w3.org/2000/svg">
<path fill-rule="evenodd" clip-rule="evenodd" d="M226.45 386.4C234.55 390.8 244.4 393 256 393C270 393 281.55 390.6 290.65 385.8C297.904 381.936 304.754 376.208 311.2 368.614V355.2L316.3 362.1C314.629 364.405 312.929 366.577 311.2 368.614V388.5H346.9V289.5C346.9 282.1 346.6 275.4 346 269.4C345.4 263.4 343.5 257.4 340.3 251.4C334.6 240.6 326.2 233 315.1 228.6C304 224.2 291.3 222 277 222C269.373 222 262.373 222.643 256 223.928L257.5 260.5C266.399 259.2 271 259.2 277 259.2C287.8 259.2 295.5 261.45 300.1 265.95C303.712 269.484 305.906 274.59 306.682 281.269C311.51 280.538 316.516 279.782 321.7 279L307 287.1C307 285.039 306.894 283.095 306.682 281.269C299.774 282.315 293.23 283.308 287.05 284.25C276.55 285.75 267.15 287.35 258.85 289.05C250.55 290.75 243.4 292.7 237.4 294.9C228.7 298.1 221.75 302.1 216.55 306.9C211.45 311.6 207.75 317.05 205.45 323.25C203.15 329.45 202 336.3 202 343.8C202 352.8 204.05 361.05 208.15 368.55C212.35 375.95 218.45 381.9 226.45 386.4ZM283.6 357C278.5 359.6 272.2 360.9 264.7 360.9C260 360.9 255.95 360.2 252.55 358.8C249.15 357.4 246.5 355.4 244.6 352.8C242.8 350.1 241.9 346.9 241.9 343.2C241.9 340.5 242.45 338.05 243.55 335.85C244.75 333.65 246.55 331.65 248.95 329.85C251.45 327.95 254.7 326.2 258.7 324.6C262.2 323.3 266.25 322.1 270.85 321C275.45 319.9 281.5 318.7 289 317.4C293.82 316.5 299.589 315.477 306.308 314.329C306.369 312.5 306.4 310.824 306.4 309.3L318.4 312.3C314.076 313.015 310.045 313.691 306.308 314.329C306.213 317.182 306.044 320.405 305.8 324C305.5 329.8 304.3 334.9 302.2 339.3C301.1 341.6 299 344.45 295.9 347.85C292.9 351.25 288.8 354.3 283.6 357Z" fill="#012B2A"/>
<path d="M307 287.1L321.7 279C316.516 279.782 311.51 280.538 306.682 281.269C306.894 283.095 307 285.039 307 287.1Z" fill="#012B2A"/>
<path d="M316.3 362.1L311.2 355.2V368.614C312.929 366.577 314.629 364.405 316.3 362.1Z" fill="#012B2A"/>
<path fill-rule="evenodd" clip-rule="evenodd" d="M306.4 309.3C306.4 310.824 306.369 312.5 306.308 314.329C310.045 313.691 314.076 313.015 318.4 312.3L306.4 309.3Z" fill="#012B2A"/>
<path d="M378.5 393V231.6C378.5 227.5 378.6 222.85 378.8 217.65C379 212.45 379.8 207.2 381.2 201.9C382.7 196.6 385.4 191.8 389.3 187.5C394.3 181.9 399.7 178.1 405.5 176.1C411.4 174 417.1 172.9 422.6 172.8C428.1 172.6 432.8 172.5 436.7 172.5H456.8V205.5H438.2C431.8 205.5 427.05 207.15 423.95 210.45C420.85 213.65 419.3 217.5 419.3 222V393H378.5ZM353 262.5V231H456.8V262.5H353ZM462.723 393V231H498.723V270.6L494.823 265.5C496.923 259.9 499.723 254.8 503.223 250.2C506.723 245.6 511.023 241.8 516.123 238.8C520.023 236.4 524.273 234.55 528.873 233.25C533.473 231.85 538.223 231 543.123 230.7C548.023 230.3 552.923 230.4 557.823 231V269.1C553.323 267.7 548.073 267.25 542.073 267.75C536.173 268.15 530.823 269.5 526.023 271.8C521.223 274 517.173 276.95 513.873 280.65C510.573 284.25 508.073 288.55 506.373 293.55C504.673 298.45 503.823 304 503.823 310.2V393H462.723ZM571.355 208.5V172.5H612.155V208.5H571.355ZM571.355 393V231H612.155V393H571.355ZM682.925 393L624.125 231H664.925L703.325 343.2L741.725 231H782.525L723.725 393H682.925ZM794.633 208.5V172.5H835.433V208.5H794.633ZM794.633 393V231H835.433V393H794.633ZM925.702 397.5C905.302 397.5 888.802 392.9 876.202 383.7C863.702 374.4 856.102 361.3 853.402 344.4L895.102 338.1C896.802 345.7 900.552 351.65 906.352 355.95C912.252 360.25 919.702 362.4 928.702 362.4C936.102 362.4 941.802 361 945.802 358.2C949.802 355.3 951.802 351.3 951.802 346.2C951.802 343 951.002 340.45 949.402 338.55C947.802 336.55 944.202 334.6 938.602 332.7C933.102 330.8 924.502 328.3 912.802 325.2C899.602 321.8 889.052 318 881.152 313.8C873.252 309.6 867.552 304.6 864.052 298.8C860.552 292.9 858.802 285.8 858.802 277.5C858.802 267.1 861.452 258.1 866.752 250.5C872.052 242.8 879.502 236.9 889.102 232.8C898.802 228.6 910.202 226.5 923.302 226.5C936.002 226.5 947.252 228.45 957.052 232.35C966.852 236.25 974.752 241.8 980.752 249C986.852 256.2 990.602 264.7 992.002 274.5L950.302 282C949.602 276 947.002 271.25 942.502 267.75C938.002 264.25 931.902 262.2 924.202 261.6C916.702 261.1 910.652 262.1 906.052 264.6C901.552 267.1 899.302 270.7 899.302 275.4C899.302 278.2 900.252 280.55 902.152 282.45C904.152 284.35 908.202 286.3 914.302 288.3C920.502 290.3 929.902 292.9 942.502 296.1C954.802 299.3 964.652 303.05 972.052 307.35C979.552 311.55 985.002 316.65 988.402 322.65C991.802 328.55 993.502 335.7 993.502 344.1C993.502 360.7 987.502 373.75 975.502 383.25C963.502 392.75 946.902 397.5 925.702 397.5Z" fill="#012B2A"/>
<path d="M217.262 225.805L218.779 254.765L247.221 224.235L217.262 225.805Z" fill="#CCAA01"/>
<circle cx="1019" cy="373" r="20" fill="#CCAA01"/>
</svg>
